<?xml version="1.0" encoding="UTF-8" standalone="no"?>
<!DOCTYPE svg PUBLIC "-//W3C//DTD SVG 1.1//EN" "http://www.w3.org/Graphics/SVG/1.1/DTD/svg11.dtd">
<svg xmlns="http://www.w3.org/2000/svg" version="1.1" viewBox="0.00 0.00 1280.00 128.00">
<path fill="#ffffff" d="
  M 219.61 128.00
  L 188.56 128.00
  L 202.60 70.79
  A 0.24 0.24 0.0 0 0 202.22 70.55
  L 172.30 94.77
  Q 171.91 95.09 171.60 94.68
  L 129.00 37.19
  Q 128.67 36.75 128.81 36.22
  L 136.87 3.79
  A 0.70 0.70 0.0 0 1 137.55 3.26
  L 146.16 3.25
  A 1.01 1.00 -18.0 0 1 146.97 3.66
  Q 164.24 26.97 181.46 50.31
  A 0.56 0.56 0.0 0 0 182.26 50.41
  L 240.19 3.51
  Q 240.52 3.25 240.95 3.25
  L 249.90 3.26
  A 0.39 0.38 -82.9 0 1 250.27 3.74
  L 219.61 128.00
  Z"
/>
<path fill="#ffffff" fill-opacity="0.765" d="
  M 1165.60 128.00
  L 1136.46 128.00
  L 1135.47 127.75
  Q 1134.81 127.58 1134.97 126.93
  L 1148.69 71.34
  Q 1149.04 69.95 1147.92 70.85
  L 1118.68 94.38
  A 0.92 0.91 52.2 0 1 1117.37 94.21
  L 1075.47 37.62
  A 2.22 2.21 33.8 0 1 1075.10 35.77
  L 1082.85 4.34
  Q 1083.06 3.49 1083.93 3.49
  L 1092.18 3.49
  Q 1092.80 3.49 1093.17 3.99
  L 1127.36 50.15
  A 0.82 0.82 0.0 0 0 1128.53 50.30
  Q 1156.18 27.95 1183.51 5.76
  C 1187.39 2.61 1190.74 2.94 1195.56 3.42
  A 0.69 0.68 9.9 0 1 1196.16 4.26
  L 1165.60 128.00
  Z"
/>
<path fill="#ffffff" d="
  M 308.30 128.00
  L 277.29 128.00
  Q 283.94 101.05 290.48 74.24
  Q 291.07 71.82 289.98 69.54
  Q 275.13 38.37 260.27 7.21
  Q 259.59 5.77 259.14 4.25
  Q 259.00 3.75 259.51 3.75
  L 295.63 3.75
  Q 296.14 3.75 296.36 4.21
  L 313.59 40.42
  Q 313.85 40.97 314.27 40.53
  L 349.65 4.09
  Q 349.99 3.75 350.47 3.75
  L 387.27 3.75
  Q 389.09 3.75 387.83 5.05
  Q 356.54 37.46 325.44 69.69
  C 323.60 71.61 321.94 72.73 321.25 75.51
  Q 314.78 101.78 308.30 128.00
  Z"
/>
<path fill="#ffffff" d="
  M 641.46 128.00
  L 610.46 128.00
  L 641.00 4.36
  Q 641.09 3.98 641.48 3.98
  L 671.55 4.00
  A 0.53 0.53 0.0 0 1 672.07 4.66
  L 641.46 128.00
  Z"
/>
<path fill="#ffffff" d="
  M 442.93 128.00
  L 379.91 128.00
  C 364.91 122.20 360.07 105.09 364.80 90.61
  Q 364.92 90.25 365.29 90.25
  L 394.27 90.25
  A 0.72 0.72 0.0 0 1 394.97 91.12
  C 394.36 93.75 392.87 99.75 397.64 99.75
  Q 414.48 99.74 431.30 99.76
  C 439.34 99.78 445.21 97.49 446.21 88.90
  C 446.64 85.19 444.09 83.12 440.65 83.19
  Q 424.24 83.53 407.84 83.01
  Q 399.10 82.73 394.43 81.04
  C 370.80 72.50 371.45 44.61 383.66 27.19
  Q 395.68 10.03 415.12 5.45
  C 425.96 2.90 440.67 4.29 452.42 4.24
  Q 464.84 4.19 469.93 5.61
  C 487.39 10.49 493.76 27.61 489.20 44.30
  Q 489.07 44.78 488.57 44.78
  L 459.22 44.73
  Q 458.69 44.73 458.77 44.21
  C 459.34 40.84 461.25 35.41 455.51 35.43
  Q 438.00 35.48 420.52 35.52
  Q 415.35 35.53 412.87 36.91
  C 407.63 39.83 402.04 51.82 413.12 51.78
  Q 440.67 51.67 448.99 52.04
  C 470.66 53.01 482.42 73.64 476.36 93.46
  Q 469.58 115.64 448.04 126.30
  Q 445.64 127.48 442.93 128.00
  Z"
/>
<path fill="#ffffff" d="
  M 510.37 4.25
  L 622.96 4.25
  A 0.51 0.51 0.0 0 1 623.45 4.88
  L 615.96 35.10
  A 0.51 0.51 0.0 0 1 615.46 35.49
  L 502.90 35.51
  A 0.51 0.51 0.0 0 1 502.41 34.88
  L 509.87 4.64
  A 0.51 0.51 0.0 0 1 510.37 4.25
  Z"
/>
<path fill="#ffffff" d="
  M 690.09 4.25
  L 801.85 4.25
  A 0.48 0.48 0.0 0 1 802.31 4.85
  L 794.81 35.12
  A 0.48 0.48 0.0 0 1 794.34 35.48
  L 682.61 35.50
  A 0.48 0.48 0.0 0 1 682.15 34.90
  L 689.62 4.62
  A 0.48 0.48 0.0 0 1 690.09 4.25
  Z"
/>
<path fill="#ffffff" fill-opacity="0.765" d="
  M 995.62 128.00
  L 960.20 128.00
  C 948.75 126.53 936.98 114.78 932.82 105.20
  Q 928.65 95.57 931.45 83.80
  Q 940.76 44.75 950.59 5.22
  Q 950.82 4.31 951.76 4.30
  L 981.20 4.22
  Q 981.72 4.22 981.59 4.73
  Q 973.01 38.80 964.75 73.00
  C 964.17 75.40 963.56 77.82 963.56 80.23
  C 963.59 97.64 980.32 103.65 994.45 97.47
  Q 1012.48 89.57 1017.19 70.04
  Q 1025.06 37.36 1032.97 5.48
  Q 1033.27 4.25 1034.53 4.26
  L 1063.62 4.27
  A 0.41 0.41 0.0 0 1 1064.02 4.78
  Q 1053.98 45.17 1044.00 85.50
  C 1038.82 106.45 1015.56 122.64 995.62 128.00
  Z"
/>
<path fill="#ffffff" fill-opacity="0.765" d="
  M 901.66 128.00
  L 872.46 128.00
  L 871.47 127.75
  Q 870.82 127.58 870.98 126.93
  L 882.52 80.33
  A 0.67 0.67 0.0 0 0 881.87 79.50
  L 833.72 79.50
  Q 833.05 79.50 832.89 80.15
  L 821.10 128.00
  L 791.46 128.00
  L 790.85 127.74
  Q 790.33 127.52 790.47 126.98
  L 820.55 5.25
  A 0.99 0.98 6.7 0 1 821.51 4.50
  L 851.25 4.50
  A 0.47 0.47 0.0 0 1 851.66 5.19
  Q 851.06 6.31 850.71 7.74
  Q 845.82 27.84 840.82 47.79
  A 0.24 0.24 0.0 0 0 841.05 48.09
  L 889.87 47.97
  A 0.85 0.84 7.0 0 0 890.69 47.33
  L 901.21 5.07
  A 0.75 0.75 0.0 0 1 901.94 4.50
  L 931.49 4.50
  Q 932.17 4.50 932.00 5.15
  L 901.66 128.00
  Z"
/>
<path fill="#ffffff" d="
  M 550.81 128.00
  L 519.70 128.00
  L 539.37 48.20
  A 0.54 0.53 6.9 0 1 539.89 47.80
  L 569.96 47.73
  Q 570.60 47.73 570.45 48.35
  L 550.81 128.00
  Z"
/>
<path fill="#ffffff" d="
  M 771.78 128.00
  L 659.11 128.00
  L 678.85 48.26
  Q 678.98 47.75 679.50 47.75
  L 780.35 47.75
  A 0.50 0.50 0.0 0 1 780.83 48.37
  L 773.29 78.69
  Q 773.15 79.25 772.57 79.25
  L 703.02 79.25
  A 0.99 0.99 0.0 0 0 702.06 80.00
  L 697.28 99.06
  A 0.55 0.55 0.0 0 0 697.81 99.75
  L 778.25 99.75
  Q 778.81 99.75 778.68 100.29
  L 771.78 128.00
  Z"
/>
<path fill="#ffffff" d="
  M 137.21 128.00
  L 106.16 128.00
  L 123.89 56.15
  Q 124.14 55.13 124.76 55.97
  L 147.17 86.27
  A 1.05 1.01 34.4 0 1 147.35 87.14
  L 137.21 128.00
  Z"
/>
<path fill="#ffffff" fill-opacity="0.765" d="
  M 1083.18 128.00
  L 1053.95 128.00
  L 1052.93 127.69
  Q 1052.38 127.52 1052.52 126.97
  L 1070.04 56.43
  A 0.52 0.52 0.0 0 1 1070.96 56.25
  L 1093.13 86.23
  Q 1093.43 86.63 1093.31 87.11
  L 1083.18 128.00
  Z"
/>
</svg>
