<?xml version="1.0" encoding="UTF-8" standalone="no"?>
<!DOCTYPE svg PUBLIC "-//W3C//DTD SVG 1.1//EN" "http://www.w3.org/Graphics/SVG/1.1/DTD/svg11.dtd">
<svg xmlns="http://www.w3.org/2000/svg" version="1.1" viewBox="0.00 0.00 1280.00 1280.00">
<path fill="#ffffff" d="
  M 340.62 754.86
  L 160.99 515.07
  A 0.31 0.31 0.0 0 1 160.94 514.81
  L 195.19 377.48
  A 0.31 0.31 0.0 0 1 195.49 377.25
  L 235.09 377.25
  A 0.31 0.31 0.0 0 1 235.33 377.37
  L 382.25 573.03
  A 0.31 0.31 0.0 0 0 382.69 573.09
  L 627.20 377.32
  A 0.31 0.31 0.0 0 1 627.39 377.25
  L 667.71 377.25
  A 0.31 0.31 0.0 0 1 668.01 377.64
  L 536.80 902.75
  A 0.31 0.31 0.0 0 1 536.50 902.98
  L 408.01 903.01
  A 0.31 0.31 0.0 0 1 407.71 902.62
  L 470.36 652.10
  A 0.31 0.31 0.0 0 0 469.86 651.78
  L 341.06 754.92
  A 0.31 0.31 0.0 0 1 340.62 754.86
  Z"
/>
<path fill="#ffffff" fill-opacity="0.765" d="
  M 826.87 561.66
  A 0.41 0.41 0.0 0 0 827.27 562.16
  Q 922.45 562.33 1017.56 562.24
  Q 1025.66 562.23 1033.75 561.92
  Q 1034.36 561.90 1034.51 561.30
  L 1079.33 382.29
  A 0.72 0.72 0.0 0 1 1080.03 381.75
  L 1207.72 381.75
  A 0.53 0.53 0.0 0 1 1208.23 382.41
  L 1078.21 902.32
  Q 1078.08 902.82 1077.57 902.77
  C 1076.31 902.64 1075.17 902.99 1074.05 902.99
  Q 1013.78 903.01 953.50 903.03
  Q 951.63 903.03 949.81 902.65
  Q 949.26 902.54 949.40 901.99
  L 1001.97 691.94
  A 0.81 0.81 0.0 0 0 1001.19 690.93
  L 795.55 690.88
  A 1.09 1.08 -82.8 0 0 794.50 691.70
  Q 768.50 795.46 742.83 898.25
  C 742.52 899.48 742.47 900.79 742.21 902.08
  Q 742.12 902.56 741.63 902.61
  C 740.49 902.72 739.11 902.99 738.00 902.99
  Q 676.54 903.02 614.69 902.99
  Q 612.89 902.99 613.33 901.24
  L 743.08 382.35
  Q 743.23 381.75 743.86 381.75
  L 871.22 381.75
  Q 871.96 381.75 871.77 382.51
  L 826.87 561.66
  Z"
/>
<path fill="#ffffff" d="
  M 63.91 902.47
  L 141.35 592.67
  A 0.43 0.43 0.0 0 1 142.11 592.51
  L 238.02 720.68
  A 0.43 0.43 0.0 0 1 238.09 721.04
  L 192.75 902.66
  A 0.43 0.43 0.0 0 1 192.33 902.99
  L 64.33 903.00
  A 0.43 0.43 0.0 0 1 63.91 902.47
  Z"
/>
</svg>
