<?xml version="1.0" standalone="no"?>
<!DOCTYPE svg PUBLIC "-//W3C//DTD SVG 20010904//EN"
 "http://www.w3.org/TR/2001/REC-SVG-20010904/DTD/svg10.dtd">
<svg version="1.0" xmlns="http://www.w3.org/2000/svg"
 width="700.000000pt" height="700.000000pt" viewBox="0 0 700.000000 700.000000"
 preserveAspectRatio="xMidYMid meet">
<metadata>
Created by potrace 1.14, written by Peter Selinger 2001-2017
</metadata>
<g transform="translate(0.000000,700.000000) scale(0.100000,-0.100000)"
fill="#000000" stroke="none">
<path d="M1065 4928 c-23 -66 -184 -742 -179 -751 10 -16 954 -1279 968 -1294
9 -10 91 51 361 267 192 153 350 278 351 277 2 -1 -73 -306 -166 -677 -93
-371 -170 -678 -170 -682 0 -5 159 -8 353 -8 l353 0 49 197 c27 109 50 203 51
208 1 6 59 235 128 510 70 275 128 509 131 520 2 11 16 67 30 125 15 58 28
112 30 120 2 8 25 98 50 200 26 102 48 192 50 200 2 8 47 187 99 397 53 209
96 386 96 392 0 13 -226 16 -232 3 -1 -4 -23 -23 -48 -42 -25 -19 -54 -43 -65
-52 -11 -9 -72 -58 -135 -108 -63 -51 -124 -99 -135 -108 -126 -105 -931 -745
-939 -747 -6 -2 -191 237 -410 531 l-399 534 -109 0 c-78 0 -110 -4 -113 -12z"/>
<path d="M4095 4912 c-26 -5 -34 -14 -41 -43 -3 -13 -7 -35 -10 -49 -3 -14 -7
-29 -8 -35 -1 -5 -4 -14 -7 -20 -3 -5 -5 -19 -5 -30 1 -11 -3 -23 -7 -26 -5
-4 -10 -24 -10 -47 -1 -22 -5 -38 -9 -35 -5 2 -8 -5 -8 -16 0 -10 3 -21 8 -24
4 -2 2 -3 -5 -1 -6 1 -14 -14 -19 -34 -4 -20 -9 -44 -11 -52 -2 -8 -5 -24 -6
-35 -2 -12 -6 -25 -9 -30 -5 -9 -44 -159 -53 -208 -2 -9 -6 -20 -8 -25 -6 -8
-19 -77 -21 -107 0 -11 -5 -23 -9 -26 -5 -4 -10 -24 -10 -47 -1 -22 -5 -38 -9
-35 -7 4 -10 -8 -12 -54 -1 -10 -4 -20 -7 -23 -4 -4 -62 -222 -84 -320 -2 -8
-8 -30 -14 -47 -5 -18 -8 -33 -6 -33 3 0 0 -11 -5 -26 -6 -14 -13 -39 -16 -57
-8 -44 -12 -62 -14 -62 -2 0 -5 -14 -14 -54 -3 -13 -8 -26 -11 -29 -2 -3 1
-12 8 -20 10 -13 9 -14 -2 -7 -11 6 -13 3 -9 -13 4 -12 3 -20 -1 -17 -7 4 -30
-76 -36 -125 -1 -8 -7 -28 -14 -44 -6 -16 -13 -46 -14 -68 -1 -21 -6 -38 -11
-38 -4 0 -6 -11 -4 -25 3 -13 2 -22 -2 -20 -7 4 -27 -69 -44 -162 -1 -7 -5
-16 -9 -19 -4 -4 -1 -14 6 -22 7 -10 8 -13 1 -9 -11 6 -19 -17 -40 -105 -8
-37 -14 -58 -54 -218 -23 -90 -44 -176 -46 -190 -3 -14 -9 -36 -14 -50 -18
-49 -16 -62 9 -66 21 -4 22 -3 10 13 -13 17 -13 17 7 1 23 -20 90 -25 78 -6
-5 8 -3 8 7 2 20 -13 399 -13 392 1 -3 5 0 4 8 -2 18 -18 83 -18 73 0 -6 9 -5
9 7 0 21 -17 94 -11 94 7 0 8 4 18 8 21 5 3 9 22 10 42 1 20 4 37 7 37 3 0 7
8 8 18 6 49 8 57 14 62 4 3 9 17 11 30 2 14 7 33 12 43 4 9 5 26 2 37 -3 11
-2 18 3 15 4 -2 13 19 19 48 6 28 13 61 16 72 12 52 16 75 13 78 -2 2 2 10 8
18 6 8 10 25 10 39 -1 14 3 28 7 31 4 3 9 19 10 35 1 16 6 32 10 35 5 3 9 22
10 42 1 20 4 37 7 37 3 0 7 8 8 18 6 48 7 57 13 62 10 9 40 141 34 151 -4 5
-2 9 4 9 9 0 25 67 25 107 0 12 4 20 8 17 4 -3 8 4 8 15 0 12 3 21 8 22 4 0
258 1 565 1 464 1 560 -1 567 -13 5 -7 5 -18 -1 -25 -11 -13 -22 -56 -23 -91
-1 -11 -4 -19 -8 -16 -5 2 -8 -2 -9 -9 0 -7 -2 -20 -4 -28 -2 -8 -5 -26 -8
-40 -3 -14 -13 -52 -21 -85 -9 -33 -19 -72 -21 -87 -3 -15 -9 -38 -15 -52 -5
-15 -7 -26 -4 -26 4 0 1 -7 -6 -15 -7 -8 -10 -15 -7 -15 3 0 -1 -23 -9 -50 -8
-28 -12 -55 -9 -60 3 -6 1 -10 -5 -10 -6 0 -10 -8 -9 -17 1 -10 -1 -25 -4 -33
-15 -38 -27 -102 -21 -112 4 -7 3 -8 -4 -4 -7 4 -12 1 -13 -6 0 -7 -2 -20 -4
-28 -9 -40 -15 -69 -26 -110 -6 -25 -12 -49 -13 -55 -2 -5 -8 -30 -15 -54 -7
-23 -10 -50 -7 -58 3 -8 2 -12 -3 -9 -5 3 -11 -6 -14 -19 -2 -14 -1 -27 2 -29
16 -10 599 -1 594 9 -3 5 0 4 8 -2 15 -14 85 -18 93 -5 3 5 7 19 10 33 3 13
12 49 20 81 8 31 17 67 20 80 2 12 12 50 21 83 9 33 18 68 20 78 2 10 7 28 11
39 4 15 3 19 -7 14 -9 -5 -9 -3 1 6 8 7 16 18 17 24 3 15 11 54 17 82 3 12 8
27 11 32 3 6 0 10 -7 10 -11 0 -11 2 0 9 7 4 15 14 16 22 1 8 8 32 14 54 6 22
14 54 17 70 7 36 9 44 18 70 3 11 8 31 11 45 2 14 8 34 12 44 6 15 4 17 -7 11
-10 -6 -9 -3 2 11 9 10 15 29 14 41 -1 12 3 19 8 16 6 -4 8 3 5 15 -4 12 -3
22 2 22 6 0 18 39 21 72 0 4 9 37 19 72 14 48 15 67 7 76 -9 10 -9 11 0 6 8
-4 16 8 23 36 6 24 15 58 20 77 5 19 7 37 5 40 -3 2 0 10 6 18 6 7 8 13 5 13
-4 0 -2 8 3 18 5 9 11 31 14 47 3 17 9 39 13 49 6 15 4 17 -7 11 -8 -5 -5 1 5
13 11 12 16 22 12 22 -3 0 0 16 8 35 8 19 13 35 11 35 -3 0 0 11 5 26 6 14 12
39 15 57 3 18 8 40 11 49 10 35 17 64 18 86 0 12 4 22 7 22 6 0 7 4 11 50 2
14 6 28 11 31 4 3 9 20 10 37 1 18 5 32 10 32 4 0 6 3 5 8 -1 4 2 25 7 47 10
49 12 54 15 58 1 1 4 13 5 27 1 14 7 38 14 54 6 16 10 35 7 42 -3 7 -1 14 4
16 9 3 20 53 23 100 1 14 5 24 8 22 4 -2 10 13 15 34 4 20 9 46 12 57 2 11 5
32 6 47 0 14 5 24 10 21 5 -4 7 3 4 15 -3 12 -3 22 2 24 4 2 10 16 14 31 5 22
4 27 -6 22 -7 -4 -4 1 6 9 11 9 17 16 13 16 -3 0 0 20 7 45 8 25 12 45 9 45
-3 0 -1 6 4 13 5 6 9 21 9 32 -1 11 4 23 9 27 6 4 -151 7 -347 7 l-358 0 -2
-22 c0 -12 -1 -28 -1 -34 1 -7 -4 -13 -9 -13 -6 0 -8 -11 -6 -25 3 -13 1 -22
-3 -19 -5 3 -9 -4 -9 -16 0 -13 4 -19 12 -14 7 5 8 3 4 -5 -5 -7 -11 -10 -14
-6 -5 5 -61 -197 -77 -276 -2 -14 -18 -79 -35 -145 -17 -65 -33 -132 -36 -148
-2 -16 -9 -36 -13 -45 -5 -9 -11 -32 -15 -51 -3 -19 -8 -44 -11 -55 -27 -118
-36 -138 -50 -115 -5 8 -13 6 -28 -7 -15 -12 -18 -13 -9 -2 10 13 8 16 -18 16
-17 0 -27 -5 -23 -10 4 -6 1 -7 -8 -1 -20 12 -149 12 -149 -1 0 -7 -3 -7 -8 0
-9 14 -65 14 -74 0 -5 -7 -8 -7 -8 0 0 14 -190 14 -190 0 0 -6 -3 -6 -8 0 -9
14 -192 14 -192 0 0 -7 -3 -7 -8 0 -9 14 -65 14 -74 0 -5 -7 -8 -7 -8 0 0 14
-230 14 -230 0 0 -6 -3 -6 -8 0 -4 6 -20 11 -37 10 -27 0 -30 3 -27 29 2 16
10 45 17 65 7 20 12 54 10 75 -1 23 1 32 6 24 7 -10 9 -9 10 5 2 18 5 35 8 40
2 1 4 11 6 23 3 11 12 47 20 80 9 32 18 70 21 84 3 14 11 48 19 75 8 28 16 61
19 75 2 14 8 34 12 44 6 15 4 17 -7 11 -8 -5 -5 1 5 13 11 12 16 22 12 22 -3
0 0 16 8 35 8 19 13 35 11 35 -3 0 0 11 5 26 6 14 12 39 15 57 3 18 8 40 11
49 9 30 16 63 17 83 1 11 6 23 12 27 5 4 -137 6 -318 5 -180 -1 -328 0 -330 3
-1 3 -11 4 -22 2z m2312 -277 c0 -8 -4 -12 -9 -9 -5 3 -6 10 -3 15 9 13 12 11
12 -6z m-557 -89 c0 -3 -4 -8 -10 -11 -5 -3 -10 -1 -10 4 0 6 5 11 10 11 6 0
10 -2 10 -4z m-1440 -180 c0 -3 -4 -8 -10 -11 -5 -3 -10 -1 -10 4 0 6 5 11 10
11 6 0 10 -2 10 -4z m1991 -93 c13 -16 12 -17 -3 -4 -10 7 -18 15 -18 17 0 8
8 3 21 -13z m-2311 -67 c0 -3 -4 -8 -10 -11 -5 -3 -10 -1 -10 4 0 6 5 11 10
11 6 0 10 -2 10 -4z m-82 -251 c-3 -3 -9 2 -12 12 -6 14 -5 15 5 6 7 -7 10
-15 7 -18z m722 -75 c0 -5 -5 -10 -11 -10 -5 0 -7 5 -4 10 3 6 8 10 11 10 2 0
4 -4 4 -10z m480 0 c0 -5 -5 -10 -11 -10 -5 0 -7 5 -4 10 3 6 8 10 11 10 2 0
4 -4 4 -10z m800 0 c0 -5 -2 -10 -4 -10 -3 0 -8 5 -11 10 -3 6 -1 10 4 10 6 0
11 -4 11 -10z m-1529 -87 c13 -16 12 -17 -3 -4 -17 13 -22 21 -14 21 2 0 10
-8 17 -17z m1139 13 c0 -2 -8 -10 -17 -17 -16 -13 -17 -12 -4 4 13 16 21 21
21 13z m-1292 -331 c-3 -3 -9 2 -12 12 -6 14 -5 15 5 6 7 -7 10 -15 7 -18z
m1677 -75 c3 -5 1 -10 -4 -10 -6 0 -11 5 -11 10 0 6 2 10 4 10 3 0 8 -4 11
-10z m-315 -480 c0 -5 -2 -10 -4 -10 -3 0 -8 5 -11 10 -3 6 -1 10 4 10 6 0 11
-4 11 -10z m-1689 -87 c13 -16 12 -17 -3 -4 -17 13 -22 21 -14 21 2 0 10 -8
17 -17z m-156 -32 c3 -5 2 -12 -3 -15 -5 -3 -9 1 -9 9 0 17 3 19 12 6z m165
-265 c0 -2 -8 -10 -17 -17 -16 -13 -17 -12 -4 4 13 16 21 21 21 13z m125 -56
c-3 -5 -12 -10 -18 -10 -7 0 -6 4 3 10 19 12 23 12 15 0z m-525 -194 c0 -3 -4
-8 -10 -11 -5 -3 -10 -1 -10 4 0 6 5 11 10 11 6 0 10 -2 10 -4z m2080 0 c0 -3
-4 -8 -10 -11 -5 -3 -10 -1 -10 4 0 6 5 11 10 11 6 0 10 -2 10 -4z"/>
<path d="M770 3757 c0 -3 -94 -385 -210 -847 -116 -462 -210 -842 -210 -845 0
-3 159 -4 353 -3 l352 3 122 485 c67 267 122 492 122 500 0 8 -114 168 -255
355 -256 341 -274 365 -274 352z"/>
</g>
</svg>
