<?xml version="1.0" encoding="UTF-8" standalone="no"?>
<!DOCTYPE svg PUBLIC "-//W3C//DTD SVG 1.1//EN" "http://www.w3.org/Graphics/SVG/1.1/DTD/svg11.dtd">
<svg xmlns="http://www.w3.org/2000/svg" version="1.1" viewBox="0 0 1280 1280">
<path fill="#faf7ff" d="
  M 1149.31 256.06
  Q 895.32 714.75 641.53 1173.69
  Q 640.65 1175.27 639.78 1173.69
  Q 594.13 1091.25 548.14 1008.34
  Q 543.48 999.95 539.00 991.45
  A 1.01 1.00 45.9 0 1 539.01 990.50
  L 1027.96 107.01
  A 1.01 1.01 0.0 0 1 1028.84 106.50
  L 1230.44 106.50
  A 1.00 1.00 0.0 0 1 1231.32 107.98
  Q 1190.30 182.03 1149.31 256.06
  Z"
/>
<path fill="#9035ff" d="
  M 56.53 107.19
  Q 154.30 107.27 252.11 107.29
  A 1.01 1.00 75.3 0 1 252.99 107.81
  L 589.55 716.04
  A 1.01 1.01 0.0 0 1 589.55 717.00
  L 489.99 898.94
  Q 489.12 900.53 488.24 898.94
  L 50.67 108.45
  A 1.00 0.99 74.2 0 1 51.49 106.97
  Q 52.51 106.92 53.60 107.01
  Q 55.77 107.19 56.53 107.19
  Z"
/>
</svg>
