<?xml version="1.0" encoding="UTF-8" standalone="no"?>
<!DOCTYPE svg PUBLIC "-//W3C//DTD SVG 1.1//EN" "http://www.w3.org/Graphics/SVG/1.1/DTD/svg11.dtd">
<svg xmlns="http://www.w3.org/2000/svg" version="1.1" viewBox="0 0 1280 1280">
<path fill="#ffffff" d="
  M 538.75 1009.22
  C 703.89 710.57 868.79 411.76 1034.53 113.43
  A 0.84 0.83 -75.3 0 1 1035.26 113.00
  L 1239.99 113.00
  A 1.09 1.09 0.0 0 1 1240.94 114.62
  L 641.47 1197.78
  A 0.55 0.55 0.0 0 1 640.51 1197.78
  Q 589.42 1105.64 538.50 1013.48
  C 537.58 1011.83 537.91 1010.73 538.75 1009.22
  Z"
/>
<path fill="#ffffff" d="
  M 41.47 113.63
  C 109.50 113.11 191.66 114.11 245.51 113.72
  C 247.91 113.71 247.56 114.97 248.48 116.62
  Q 418.12 423.18 587.76 729.75
  Q 588.40 730.90 589.17 731.98
  A 0.86 0.84 -49.3 0 1 589.23 732.89
  L 487.49 918.78
  Q 487.06 919.57 486.62 918.79
  L 41.19 114.11
  A 0.33 0.32 -15.2 0 1 41.47 113.63
  Z"
/>
</svg>
