<?xml version="1.0" standalone="no"?>
<!DOCTYPE svg PUBLIC "-//W3C//DTD SVG 20010904//EN"
 "http://www.w3.org/TR/2001/REC-SVG-20010904/DTD/svg10.dtd">
<svg version="1.0" xmlns="http://www.w3.org/2000/svg"
 width="1024.000000pt" height="1024.000000pt" viewBox="0 0 1024.000000 1024.000000"
 preserveAspectRatio="xMidYMid meet">
<metadata>
Created by potrace 1.14, written by Peter Selinger 2001-2017
</metadata>
<g transform="translate(0.000000,1024.000000) scale(0.100000,-0.100000)"
fill="#000000" stroke="none">
<path d="M0 5120 l0 -5120 5120 0 5120 0 0 5120 0 5120 -5120 0 -5120 0 0
-5120z m2705 1468 c79 -106 282 -375 450 -598 168 -223 314 -413 324 -423 21
-22 -64 -87 862 656 l696 557 132 0 c72 0 131 -4 131 -9 0 -11 -796 -3197
-816 -3268 l-15 -53 -410 0 c-386 0 -410 1 -405 18 3 9 37 145 75 302 38 157
109 440 156 630 122 488 139 570 115 555 -5 -3 -10 1 -10 9 0 12 -13 7 -50
-19 -68 -48 -300 -228 -450 -350 -69 -55 -156 -124 -193 -153 l-69 -51 -22 27
c-55 67 -1084 1443 -1106 1479 -9 14 11 107 95 442 58 234 109 429 111 433 3
4 61 8 129 8 l124 0 146 -192z m6020 160 c1 -2 -183 -743 -409 -1648 l-411
-1645 -413 -3 c-391 -2 -413 -1 -408 15 5 17 311 1255 321 1301 l5 22 -652 -2
-653 -3 -152 -605 c-83 -333 -159 -633 -169 -667 l-16 -63 -410 0 c-324 0
-409 3 -406 13 3 6 189 749 414 1650 l409 1637 407 0 c248 0 408 -4 408 -9 0
-6 -51 -216 -114 -468 -142 -567 -156 -627 -156 -647 0 -15 58 -16 649 -16
l648 0 143 570 143 569 106 4 c114 4 712 0 716 -5z m-6502 -1671 c134 -177
268 -356 299 -398 l56 -76 -144 -574 c-79 -316 -144 -575 -144 -576 0 -2 -182
-3 -405 -3 -308 0 -405 3 -405 12 0 33 484 1947 491 1942 5 -3 118 -150 252
-327z"/>
</g>
</svg>
